<svg xmlns="http://www.w3.org/2000/svg" width="814.667" height="809.333" version="1.0" viewBox="0 0 611 607 "><path d="M0 303.5V607h611V0H0v303.5zM364.5 156c16.5 2.3 33.4 7.4 46.9 14.1 9.7 4.8 14.8 9.2 14.4 12.3-.5 3.4-13 2.6-29.8-1.9-44.9-12.1-91.3-12.6-137.5-1.4-46.8 11.2-90.3 33.6-125.9 64.8-27.3 23.9-51.7 58.6-64.9 92.1-3.4 8.7-9.3 28.8-10.9 37.5-1.1 5.9-1.3 6.4-1.6 3.5-.7-6.7 3.4-29.8 8.2-46.4 6.9-23.6 22.7-53.3 38.8-72.8 10.3-12.5 31.8-33 44.5-42.4 5.3-4 5.9-4.4 12.8-9 12.7-8.5 37.2-21.9 46.1-25.2 1.6-.6 6.3-2.5 10.4-4.2 22-9.3 57.2-18.4 81-21 5.2-.5 11.1-1.2 13-1.4 6.3-.8 46.3.3 54.5 1.4zM209.4 272.8c.2.4-1.2 7.3-3.3 15.2-5.1 19.4-12.3 46.3-15.5 58.4-1.5 5.4-2.4 10.1-2.1 10.5.9.9.1.8 27.1 1 17.3.1 24.3.4 23.8 1.2-.3.6-3 2.6-6 4.5l-5.3 3.4H185c-49.3 0-44.3 1.4-41.1-11.1 1.1-4.1 5.5-20.9 10-37.4 11.1-41.6 10.5-38 7-40.9-1.6-1.4-2.9-3.2-2.9-4 0-1.4 3-1.6 25.4-1.6 14 0 25.7.4 26 .8zm143.8 6.7c1 3.8 2.7 11.3 3.8 16.5 1.1 5.2 4 18.5 6.5 29.5 7.5 33.3 8.5 37.8 8.5 39.7 0 1.7-1.7 1.8-27 1.8h-26.9l-1.2-4.3c-.6-2.3-1.7-6-2.4-8.2l-1.2-4-17.9-.3c-9.8-.1-18.8 0-20 .2-1.1.3-4.6 4.2-7.8 8.6l-5.8 8h-10.4c-6.7 0-10.4-.4-10.4-1.1 0-1.2 8.9-14.2 23.9-34.9 36.6-50.5 33.6-45.7 32.3-52.2-.5-2.9-.8-5.6-.5-6.1.2-.4 12.6-.6 27.6-.5l27.1.3 1.8 7zm150-5c6.2 4.7 7.1 9.8 3.7 22.3-1.1 4.2-3.2 12.1-4.5 17.6-2.8 11.3-4.1 14.1-8.1 17.7-3.4 3.2-12.1 7.9-14.5 7.9-2.7 0-2.2 2 2.6 12.8 6.8 15.2 8.6 13.7-16.1 14l-21.2.2-1.5-2.7c-.7-1.6-2.1-5.1-2.9-7.8-3.1-9.7-4.5-13-6.4-14.2-1-.7-2.3-.9-2.9-.5-.6.4-2.3 5.4-3.8 11.2-1.5 5.8-3.1 11.2-3.5 12-.7 1.2-4.4 1.5-21.8 1.8-16.3.2-21.2 0-21.5-1-.5-1.2 3-15.4 9.6-39.3 5.9-21.3 9.9-36.3 10.9-40.7.9-4.5.8-4.9-2.2-8.3-1.7-2-3.1-4-3.1-4.6 0-.6 17.9-.9 52.3-.7 50.4.3 52.3.4 54.9 2.3zM381.8 382.4l-.3 10.1-4.5.1c-2.5.1-5.2 0-6.1-.2-2.3-.6-4.2-5.5-3.4-8.7.9-3.5 2.9-5 6.5-4.9 2.7.1 3-.2 3-3.2 0-3.9.5-4.5 3.1-3.9 1.8.5 1.9 1.3 1.7 10.7zm80-7.1c.3 3.5.5 3.7 3.7 3.7 4 0 5.5 2 5.5 7.4 0 4.5-2.8 6.4-9 6.2l-4.5-.1-.3-9.4c-.3-10.7 0-12 2.5-11.7 1.3.2 1.9 1.3 2.1 3.9zm-309.6 2.9c0 3.5.1 6.9.1 7.5-.1.8 1.1 1.3 2.8 1.3 1.6 0 3 .4 3 1 .6 4.5.6 4.5-5.1 4.5h-5.5l-.3-8.9c-.3-10.3 0-11.6 2.8-11.6 1.8 0 2 .7 2.2 6.2zm13.2-5.3c1 1.6-.5 4.1-2.4 4.1-2.3 0-3.4-1.6-2.6-3.5.6-1.6 4.2-2 5-.6zm59 8.2c2 5 3.6 9.7 3.6 10.5 0 2.1-3.8 1.7-5.2-.6-.8-1.3-2.4-2-4.3-2s-3.5.7-4.3 2c-1.3 2.2-5.2 2.8-5.2.8 0-.7 1.6-5.4 3.6-10.5 3.1-7.9 3.9-9.3 5.9-9.3 1.9 0 2.8 1.4 5.9 9.1zm35.9-7.9c.7 2.1-.4 3.8-2.3 3.8-2.3 0-3.4-1.6-2.6-3.5.7-1.8 4.3-2 4.9-.3zm159.7.8c2.4 2.4 2.5 4.3.3 8.1-1.6 2.7-1.6 3 .5 5.8 2.8 3.9 2.8 5.1-.3 5.1-1.7 0-3.2-1.1-4.9-3.6l-2.5-3.7-.3 3.4c-.2 2.6-.8 3.5-2.5 3.7-2.3.3-2.3.2-2.3-10.2V372h5c3.7 0 5.5.5 7 2zm-80 0c-.1 2-2.2 2.9-6.8 2.8-2.8-.1-5.2-.3-5.2-.4 0-2.4 1.7-3.2 6.6-3.1 3 .1 5.4.4 5.4.7zm-88.2 2.8c.2 1.2.8 2.2 1.3 2.2s.9.9.9 2-.4 2-.9 2c-.6 0-1.1 2.1-1.3 4.7-.3 4-.6 4.8-2.3 4.8-1.7 0-2.1-.8-2.3-4.5-.2-2.4-.8-5-1.3-5.7-.7-.7-.7-1.8 0-3 .5-1 1.2-2.6 1.5-3.6.8-2.5 4-1.7 4.4 1.1zm-69.8 10c0 5.6-.4 8-1.7 9.4-2.8 3.2-12.3 1.8-12.3-1.7 0-.9.9-1.5 2.2-1.5h2.2l-2.1-1.5c-2.6-1.8-3.6-5.6-2.3-9 1.2-3.2 3.6-4.1 9.5-3.7l4.5.4v7.6zm15.8-.9-.3 6.6-4.5.2c-6.3.2-9-1.7-9-6.5 0-3.9 1.4-6.7 3.8-7.3.7-.2 3.3-.2 5.8-.1l4.5.4-.3 6.7zm45.7.7c0 5.2-.2 5.9-2 5.9-1.7 0-2-.8-2.3-4.8-.4-6.1-2.5-5.8-3.2.4-.4 3.6-.9 4.4-2.5 4.4-1.8 0-2-.8-2.3-6.7l-.3-6.7 4.3-.3c6.8-.5 8.3.9 8.3 7.8zm31.8-5.8c2 1.8 2.3 7 .4 9.5-.6 1-2.8 2-4.8 2.3-4.4.7-7.9-2-7.9-6.2 0-7.2 6.9-10.4 12.3-5.6zM301 383c0 4.1 1.6 6.2 3.1 3.9.5-.8.9-2.9.9-4.7 0-2.7.3-3.2 2.5-3.2s2.5.4 2.5 3.9c0 6.4-1.4 8.9-5.5 9.7-2.5.4-4.2.1-6-1-2.2-1.4-2.5-2.4-2.5-7 0-3.5.5-5.6 1.3-5.9 2.5-.8 3.7.6 3.7 4.3zm22.3-2.1c.9.9 1.7 2.5 1.9 3.6.2 1.7-.3 2-3.9 2.3-2.4.2-4.3.8-4.3 1.3 0 .6 1.4.7 3.4.4 4.3-.9 5.5.9 2.1 3.1-1.7 1.1-3.5 1.4-5.9 1-2.8-.5-3.7-1.3-4.6-4-2-6.1 1.7-10.9 7.6-9.8 1.3.2 2.9 1.2 3.7 2.1zm72.2-.7c.8 1 2.5 4.9 2.5 5.7 0 .6-2 1.1-4.5 1.1s-4.5.5-4.5 1c0 .7 1.3.8 3.4.5 4-.8 5.7 1 3 3-4 3.1-10.9.6-11.5-4-.8-6.1 3.1-9.9 8.5-8.4 1.6.5 3 1 3.1 1.1zM454 387c0 9.2-1.1 11-7 11-5.8 0-9.9-4.9-4.2-5.1 1.5 0 2-.3 1.2-.6-5.2-1.9-5.4-11.9-.2-13.4.7-.2 3.3-.3 5.7-.1l4.5.4v7.8zm-289-1c0 6.2-.2 7-1.9 7s-2-.9-2.3-6.6c-.3-7.2-.3-7.4 2.4-7.4 1.6 0 1.8.9 1.8 7zm94.8-.3c-.3 6-.5 6.8-2.3 6.8-1.8 0-2-.8-2.3-6.8-.3-6.6-.3-6.7 2.3-6.7 2.6 0 2.6.1 2.3 6.7zm33.2 2.8c0 9.5 0 9.5-2.5 9.5-2.1 0-2.5-.5-2.5-2.9s-.3-2.8-2.3-2.4c-3.4.7-7-2.7-6.9-6.5.1-5.9 1.6-7.2 8.2-7.2h6v9.5zm47-7.5c.6 1.2 1 4.2.8 6.8-.3 3.9-.6 4.7-2.3 4.7-1.6 0-2.1-.8-2.5-4.5-.3-3.1-1-4.5-2-4.5-1.1 0-1.6 1.3-1.8 4.8-.3 4.3-.5 4.8-2.5 4.5-2-.3-2.2-.9-2.3-6.3-.1-3.3 0-6.3.3-6.8.2-.4 2.9-.7 5.8-.7 4.4 0 5.6.4 6.5 2zm16.8 4.7-.3 6.8-4.5.2c-6.3.2-9-1.7-9-6.7 0-5.4 2-7 8.6-7h5.5l-.3 6.7zm72.4-2.5c.2 3 .8 4.3 1.8 4.3s1.6-1.3 1.8-4.3c.3-3.7.6-4.2 2.8-4.2 2.2 0 2.4.4 2.4 4.8 0 5.9-1.5 8.1-6 8.8-5.3.8-7.2-1.2-7.8-8-.4-5.5-.4-5.6 2.1-5.6 2.3 0 2.6.4 2.9 4.2zm49.4-1 1.6 3.2 1.4-3.2c.9-2.1 2-3.2 3.4-3.2 2.5 0 2.5.7-.1 7.2-4.1 10.4-5 11.8-7.6 11.8-2 0-2.4-.4-1.8-1.8 1.7-4 1.5-6.2-.9-11-1.4-2.8-2.6-5.4-2.6-5.7 0-.3 1.1-.5 2.5-.5 1.7 0 2.9.9 4.1 3.2z"/><path d="M298.3 315.2c-2.7 4-7.5 11-10.6 15.5-3.2 4.5-5.7 8.4-5.7 8.7 0 .4 6.5.6 14.5.6s14.5-.3 14.5-.8c0-.4-1.3-7.2-3-15-1.6-7.9-3-14.8-3-15.3 0-2.3-2-.4-6.7 6.3zM447.4 281.8c-.6.4-1.3 1.6-1.6 2.7-.3 1.1-1.8 6.5-3.2 12-6.3 23.3-8.6 33-8.2 34.2.6 1.4 16.1 1.9 18.2.5 1.3-.8 2.4-4.3 9.3-30.2 2.7-10.2 4.7-18.8 4.4-19.3-.5-.9-17.5-.9-18.9.1zM373.7 383.7c-1.3 1.2-.7 4.3.7 4.3 1.9 0 2.8-1.4 2-3.4-.7-1.7-1.6-2-2.7-.9zM463.3 383.7c-2.2.8-1.5 4.3.7 4.3 1.3 0 2-.7 2-1.9 0-2.2-.9-3-2.7-2.4zM217.6 382.5c-.3.9 0 1.5.9 1.5s1.2-.6.9-1.5c-.4-.8-.7-1.5-.9-1.5-.2 0-.5.7-.9 1.5zM413 378.4c0 1.9.4 2.4 1.5 1.9 1.8-.6 1.6-3.4-.2-4.1-.8-.2-1.3.6-1.3 2.2zM173.2 385.2c.2 1.2 1 2.3 1.8 2.3 2.2 0 1.9-3.9-.3-4.3-1.5-.3-1.8.1-1.5 2zM173.7 392.6c-.8.8.1 2.4 1.3 2.4.4 0 1-.7 1.4-1.5.5-1.5-1.4-2.1-2.7-.9zM190.3 383.7c-1.8.7-1.6 4.3.2 4.3s3.1-2.8 1.9-3.9c-.5-.5-1.5-.6-2.1-.4zM268.7 383.6c-1.6 1.6-.7 4.4 1.4 4.4 1.5 0 2-.5 1.7-2.2-.3-2.2-1.9-3.3-3.1-2.2zM317 383c0 .5.7 1 1.5 1s1.5-.5 1.5-1c0-.6-.7-1-1.5-1s-1.5.4-1.5 1zM389.5 383c-.3.5.1 1 .9 1 .9 0 1.6-.5 1.6-1 0-.6-.4-1-.9-1-.6 0-1.3.4-1.6 1zM445.3 384.6c-.8 2.1 1.3 4.2 2.8 2.7 1.3-1.3.5-4.3-1.1-4.3-.6 0-1.3.7-1.7 1.6zM446.2 393.1c.2.6.8 1 1.3 1s1.1-.4 1.3-1c.2-.6-.4-1.1-1.3-1.1s-1.5.5-1.3 1.1zM284.6 383.7c-.3.4-.6 1.5-.6 2.5 0 2.4 3.3 2.1 3.8-.3.3-1.7-2.1-3.3-3.2-2.2zM348.7 383.6c-1.6 1.6-.7 4.4 1.4 4.4 1.5 0 2-.5 1.7-2.2-.3-2.2-1.9-3.3-3.1-2.2z"/></svg>