
<path d="M5.99998 0.962402L0 4.81144L5.99998 8.60388L12 4.81144L5.99998 0.962402ZM17.9999 0.962402L12 4.81144L17.9999 8.60388L23.9999 4.81144L17.9999 0.962402ZM0 12.4529L5.99998 16.302L12 12.4529L5.99998 8.60388L0 12.4529ZM17.9999 8.60388L12 12.4529L17.9999 16.302L23.9999 12.4529L17.9999 8.60388ZM5.99998 17.5472L12 21.3963L17.9999 17.5472L12 13.7548L5.99998 17.5472Z" fill="#0062FF"/>
</svg>

<?xml version="1.0" encoding="UTF-8"?>
<svg width="24" height="23" viewBox="0 0 24 23" fill="none" xmlns="http://www.w3.org/2000/svg">
<path d="M0 0 C1.14504648 -0.00551503 1.14504648 -0.00551503 2.31322521 -0.01114148 C4.87320656 -0.02216141 7.4331473 -0.02601932 9.9931488 -0.02983093 C11.82808562 -0.03609697 13.66302116 -0.0427439 15.49795532 -0.04974365 C21.52686176 -0.07077364 27.55576841 -0.08114657 33.58470154 -0.09111023 C35.66220043 -0.09515849 37.73969918 -0.09927543 39.8171978 -0.10346031 C49.58022364 -0.12251139 59.34324192 -0.13674136 69.10628277 -0.14507228 C80.3642524 -0.15483809 91.62202506 -0.18114089 102.87992531 -0.22157317 C111.58838774 -0.25177226 120.29679385 -0.26654485 129.00530761 -0.26985329 C134.20302473 -0.27219987 139.40053142 -0.281109 144.59819221 -0.30631447 C149.49266798 -0.32966588 154.38679582 -0.33380003 159.28131294 -0.32355309 C161.07148397 -0.3230593 162.86167253 -0.32933316 164.65179062 -0.34310913 C180.69337071 -0.45958679 192.36809665 2.67683904 204.58079529 13.64717102 C211.52635803 20.82935614 216.61206044 31.22894738 216.55345154 41.26168823 C216.55023392 42.29464523 216.5470163 43.32760223 216.54370117 44.39186096 C216.53531723 45.51968994 216.52693329 46.64751892 216.51829529 47.80952454 C216.50884961 50.28100492 216.499666 52.75248631 216.4907074 55.22396851 C216.48441315 56.53545427 216.4781189 57.84694004 216.47163391 59.1981678 C216.45364053 63.30553261 216.45171607 67.41280454 216.4540863 71.52020264 C216.45445546 72.21457052 216.45482462 72.90893841 216.45520496 73.62434775 C216.45652265 75.76281505 216.45807998 77.90128205 216.45970154 80.03974915 C216.46640143 88.87959684 216.46168642 97.71885629 216.40452576 106.55854797 C216.3629142 113.01087622 216.3533983 119.46237561 216.38063622 125.91479248 C216.39382263 129.32453432 216.39126099 132.73255796 216.34959412 136.14210701 C215.47155542 152.6461577 215.47155542 152.6461577 221.82737732 167.17085266 C223.32550018 168.54659535 224.86424112 169.88068163 226.45579529 171.14717102 C227.52185079 172.35034687 228.56769564 173.57246456 229.57298279 174.82685852 C230.49108327 175.89297167 231.41034849 176.95808294 232.33079529 178.02217102 C233.35847755 179.2158901 234.38581342 180.40990745 235.41282654 181.60420227 C235.92023376 182.1941095 236.42764099 182.78401672 236.95042419 183.39179993 C240.69052053 187.75302157 244.39046165 192.14847375 248.09690857 196.5382843 C249.92255693 198.69980473 251.75021466 200.85962075 253.57810974 203.01924133 C254.49748057 204.10560757 255.41658817 205.19219661 256.33543396 206.27900696 C258.59733294 208.95401805 260.86252337 211.6260804 263.13548279 214.29170227 C265.42822643 216.98211576 267.70570196 219.68496604 269.97727966 222.39326477 C270.99952464 223.60591469 272.02723704 224.81396907 273.05931091 226.01826477 C281.16175029 235.48221864 287.90502769 244.9790382 293.45579529 256.14717102 C294.0191156 257.26221008 294.58243591 258.37724915 295.16282654 259.52607727 C309.21028647 289.64809895 307.08017545 322.56873736 295.96678162 353.13276672 C295.67053894 353.94447327 295.37429626 354.75617981 295.06907654 355.59248352 C284.9016801 383.72596627 290.46489341 412.57720189 294.55497742 441.32777405 C295.61427757 448.77900779 296.65679746 456.23246413 297.68179321 463.68849182 C298.03843129 466.25469969 298.40791903 468.81881016 298.77867126 471.38301086 C302.34657544 496.65746812 302.34657544 496.65746812 299.09873962 502.65180969 C297.11038402 505.10179638 295.27590312 506.7371171 292.45579529 508.14717102 C290.78199259 508.24646267 289.10425729 508.28223939 287.42752075 508.28761292 C285.83133911 508.29617813 285.83133911 508.29617813 284.20291138 508.30491638 C283.03041336 508.30603424 281.85791534 508.3071521 280.64988708 508.30830383 C279.41892303 508.31326874 278.18795898 508.31823364 276.91969299 508.323349 C273.53733631 508.33547134 270.15504157 508.3429195 266.77267051 508.34735966 C264.65965046 508.35028959 262.54663586 508.35439428 260.43361855 508.35886383 C253.82295401 508.3725415 247.2123019 508.38220648 240.60162419 508.38606572 C232.96985786 508.39054544 225.33827072 508.40808806 217.70655888 508.43706632 C211.80839632 508.45868477 205.91028416 508.46877011 200.0120824 508.47010684 C196.48905065 508.47115488 192.96618729 508.47706213 189.44319725 508.49492645 C185.5120351 508.51447216 181.58109669 508.51011748 177.64988708 508.50361633 C176.48346176 508.51283112 175.31703644 508.5220459 174.11526489 508.53153992 C173.04268433 508.52597076 171.97010376 508.52040161 170.86502075 508.5146637 C169.93568568 508.51613026 169.00635061 508.51759682 168.04885387 508.51910782 C163.77938186 507.90671373 161.16302136 505.87404226 158.20579529 502.83467102 C154.59706427 497.29269124 155.37356783 490.73756515 155.45579529 484.35810852 C155.45695421 482.42711885 155.45557027 480.49612628 155.45188904 478.56513977 C155.44748662 475.54948532 155.45554299 472.53693667 155.50706482 469.52168274 C155.71935804 455.91927417 155.1092583 448.28382786 145.45579529 438.14717102 C143.72356639 435.60888359 142.23344796 432.97168177 140.76829529 430.27217102 C140.39728699 429.59638 140.02627869 428.92058899 139.64402771 428.22431946 C127.96005541 406.58451823 121.1333885 382.6933471 121.38548279 358.04951477 C121.39055847 357.09105652 121.39563416 356.13259827 121.40086365 355.14509583 C121.4139566 352.8123673 121.4323468 350.47981446 121.45579529 348.14717102 C120.80110354 348.15085819 120.1464118 348.15454536 119.47188091 348.15834427 C103.50368525 348.24688094 87.53557558 348.31297053 71.56719494 348.35441971 C63.84483178 348.37499967 56.12263299 348.40303224 48.40037537 348.44892883 C41.66558904 348.48893721 34.93092182 348.51463698 28.19601995 348.523525 C24.63356318 348.52871624 21.07144701 348.54082052 17.50909996 348.57009125 C13.52137349 348.60258803 9.5342301 348.60312153 5.54637146 348.60127258 C4.37967422 348.61565369 3.21297699 348.63003479 2.01092529 348.64485168 C-11.4294027 348.57769986 -21.77631282 343.53368428 -31.66920471 334.64717102 C-38.4925126 327.59140575 -43.6571772 317.24706038 -43.67842579 307.37531185 C-43.68288363 306.41271417 -43.68734148 305.45011648 -43.69193441 304.45834917 C-43.69175004 303.40360212 -43.69156568 302.34885507 -43.69137573 301.262146 C-43.69689076 299.57807061 -43.69689076 299.57807061 -43.70251721 297.85997349 C-43.71356303 294.08387524 -43.71739944 290.3078045 -43.72120667 286.5316925 C-43.72693866 283.82977055 -43.73410462 281.12785272 -43.74111938 278.42593384 C-43.7608716 270.30734778 -43.77094889 262.1887605 -43.77984717 254.07015643 C-43.78423252 250.24468743 -43.78959873 246.41921981 -43.79483604 242.59375191 C-43.81184786 229.87276592 -43.82634097 217.15178079 -43.83358479 204.43078518 C-43.83549461 201.13043657 -43.83741495 197.83008796 -43.83937073 194.52973938 C-43.83985447 193.70947712 -43.84033821 192.88921487 -43.84083661 192.04409618 C-43.84913294 178.76302665 -43.87446335 165.4820473 -43.90695141 152.20101713 C-43.94005169 138.55819586 -43.95803627 124.91542038 -43.96122903 111.27255875 C-43.96339149 103.61565404 -43.97210126 95.95888081 -43.9976902 88.3020153 C-44.01943791 81.77955678 -44.02742774 75.25726167 -44.01772342 68.73477101 C-44.01319017 65.40971449 -44.0172058 62.08526717 -44.03448486 58.76021194 C-44.05220797 55.1468862 -44.0450943 51.53440836 -44.0319519 47.92108154 C-44.04292115 46.88194955 -44.0538904 45.84281755 -44.06519204 44.77219671 C-43.95182871 31.81402887 -38.58025303 21.52490857 -30.04420471 12.02217102 C-21.90864311 4.15464149 -11.1789521 -0.00289324 0 0 Z " fill="#F4D550" transform="translate(125.54420471191406,1.8528289794921875)"/>
<path d="M0 0 C5.63038549 5.63038549 5.63038549 5.63038549 7.796875 8.1640625 C8.27568115 8.72279053 8.7544873 9.28151855 9.24780273 9.85717773 C9.99139038 10.73224976 9.99139038 10.73224976 10.75 11.625 C11.54096069 12.55131226 11.54096069 12.55131226 12.34790039 13.49633789 C15.42236038 17.10816367 18.44949371 20.75358097 21.4375 24.4375 C25.58060991 29.54307465 29.8823045 34.49800053 34.20288086 39.45288086 C38.10679699 43.94047492 41.89214845 48.50862422 45.62890625 53.13671875 C47.94986691 55.93946037 50.33716222 58.66816283 52.74707031 61.39404297 C67.17074993 77.76337781 79.52701807 95.57021433 85 117 C85.387323 118.51291626 85.387323 118.51291626 85.7824707 120.05639648 C87.81998562 128.67851168 88.51053255 136.84193519 88.4375 145.6875 C88.42920166 146.99895996 88.42090332 148.31041992 88.41235352 149.66162109 C88.12754282 166.13199024 84.22077127 180.08075934 78.61328125 195.4453125 C68.44588482 223.57879525 74.00909812 252.43003087 78.09918213 281.18060303 C79.15848228 288.63183677 80.20100217 296.08529311 81.22599792 303.5413208 C81.582636 306.10752867 81.95212374 308.67163914 82.32287598 311.23583984 C85.89078015 336.5102971 85.89078015 336.5102971 82.64294434 342.50463867 C80.65458874 344.95462536 78.82010783 346.58994608 76 348 C74.3261973 348.09929165 72.64846201 348.13506837 70.97172546 348.14044189 C69.37554382 348.14900711 69.37554382 348.14900711 67.74711609 348.15774536 C66.57461807 348.15886322 65.40212006 348.15998108 64.1940918 348.16113281 C62.96312775 348.16609772 61.7321637 348.17106262 60.46389771 348.17617798 C57.08154102 348.18830032 53.69924628 348.19574848 50.31687522 348.20018864 C48.20385517 348.20311857 46.09084057 348.20722326 43.97782326 348.21169281 C37.36715872 348.22537047 30.75650661 348.23503546 24.1458289 348.2388947 C16.51406257 348.24337442 8.88247544 348.26091704 1.2507636 348.2898953 C-4.64739897 348.31151375 -10.54551113 348.32159909 -16.44371289 348.32293582 C-19.96674464 348.32398386 -23.489608 348.32989111 -27.01259804 348.34775543 C-30.94376019 348.36730114 -34.8746986 348.36294646 -38.8059082 348.35644531 C-39.97233353 348.3656601 -41.13875885 348.37487488 -42.3405304 348.3843689 C-43.41311096 348.37879974 -44.48569153 348.37323059 -45.59077454 348.36749268 C-46.52010961 348.36895924 -47.44944468 348.3704258 -48.40694141 348.3719368 C-52.67641343 347.75954271 -55.29277393 345.72687124 -58.25 342.6875 C-61.85873102 337.14552021 -61.08222746 330.59039412 -61 324.2109375 C-60.99884108 322.27994783 -61.00022502 320.34895526 -61.00390625 318.41796875 C-61.00830867 315.4023143 -61.0002523 312.38976565 -60.94873047 309.37451172 C-60.73643725 295.77210315 -61.34653699 288.13665684 -71 278 C-72.7322289 275.46171257 -74.22234733 272.82451075 -75.6875 270.125 C-76.24401245 269.11131348 -76.24401245 269.11131348 -76.81176758 268.07714844 C-93.60557569 236.97345699 -100.43423624 199.07391237 -92.36251831 164.24967957 C-91.93840722 160.44787118 -92.58880469 158.30683132 -93.90258789 154.72949219 C-94.34377457 153.5067157 -94.78496124 152.28393921 -95.23951721 151.02410889 C-95.73368973 149.69828703 -96.22807515 148.3725445 -96.72265625 147.046875 C-97.22666953 145.66414625 -97.7293674 144.28093739 -98.2308197 142.89727783 C-99.55623024 139.25005771 -100.89789228 135.60903618 -102.24353027 131.96923828 C-103.58690687 128.32896603 -104.91753729 124.68405336 -106.24804688 121.0390625 C-106.50673428 120.33054642 -106.76542168 119.62203033 -107.03194809 118.89204407 C-107.54858479 117.47678489 -108.06511481 116.06148676 -108.58153534 114.64614868 C-109.09157719 113.24856585 -109.60189647 111.85108423 -110.11249542 110.45370483 C-113.03889771 102.44382042 -115.96405813 94.43440671 -118.70703125 86.359375 C-119.05979881 85.34167023 -119.05979881 85.34167023 -119.41969299 84.30340576 C-122.3347855 75.5434303 -122.10339681 67.69163068 -118.25390625 59.30859375 C-113.47704613 50.5138139 -106.07311429 42.54602835 -96.28125 39.4375 C-85.19440729 37.31125619 -74.07425619 39.27088812 -64.6875 45.625 C-56.97868206 52.17644949 -52.8700584 60.75603819 -49.609375 70.13671875 C-49.23407654 71.17575851 -48.85877808 72.21479828 -48.47210693 73.2853241 C-47.69038395 75.45097504 -46.91447016 77.61873142 -46.14428711 79.78851318 C-44.70116765 83.83868476 -43.21318015 87.87145964 -41.72236633 91.90426636 C-40.63229768 94.85456939 -39.54894714 97.80725817 -38.4675293 100.76074219 C-36.94890582 104.90716305 -35.42677235 109.05226835 -33.90161133 113.19628906 C-30.59093216 122.19434851 -27.28133168 131.19219278 -24.04165649 140.21611023 C-22.86951237 143.47730545 -21.68736447 146.7348201 -20.50354004 149.99179077 C-19.96532173 151.48119018 -19.43208241 152.97239953 -18.9041748 154.46548462 C-18.18174363 156.50781819 -17.4425217 158.54331284 -16.69921875 160.578125 C-16.29533936 161.70637695 -15.89145996 162.83462891 -15.4753418 163.99707031 C-13.71163042 167.58695115 -12.18257199 169.55447012 -9 172 C-6.03 172.66 -3.06 173.32 0 174 C0 116.58 0 59.16 0 0 Z " fill="#FEDDBD" transform="translate(342,162)"/>
</svg>
